<svg width="15" height="16" viewBox="0 0 15 16" fill="none" xmlns="http://www.w3.org/2000/svg">
<path fill-rule="evenodd" clip-rule="evenodd" d="M9.94955 0.015665C9.9612 -0.000951152 9.98408 -0.00498931 10.0007 0.00664544L11.1368 0.802131C11.1534 0.813766 11.1574 0.836666 11.1458 0.853281L9.56458 3.11148C10.3333 3.35706 10.857 3.62197 10.857 3.62197C10.857 3.62197 9.57689 5.82391 7.40567 5.82391C5.23445 5.82391 3.69161 3.77166 3.69161 3.77166C3.69161 3.77166 4.23867 3.42253 5.04961 3.1231L3.31523 1.05617C3.3022 1.04063 3.30423 1.01747 3.31977 1.00443L4.38217 0.112958C4.39773 0.0999194 4.42089 0.101946 4.43392 0.117485L6.62992 2.73458C6.81795 2.71331 7.00952 2.70142 7.20283 2.70142C7.48067 2.70142 7.75817 2.72254 8.02908 2.75838L9.94955 0.015665ZM10.3791 5.92819C10.9585 5.51437 11.8353 4.43431 11.8353 4.43431C11.8353 4.43431 14.0748 6.209 14.0748 9.972C14.0748 13.735 10.203 15.9998 10.203 15.9998C10.203 15.9998 8.35317 14.1316 7.89905 11.7634C7.44495 9.39528 8.5708 6.76572 8.5708 6.76572C8.5708 6.76572 9.79967 6.342 10.3791 5.92819ZM4.13902 5.92819C3.55961 5.51437 2.68286 4.43431 2.68286 4.43431C2.68286 4.43431 0.443359 6.209 0.443359 9.972C0.443359 13.735 4.31511 15.9998 4.31511 15.9998C4.31511 15.9998 6.16495 14.1316 6.61908 11.7634C7.07317 9.39528 5.94733 6.76572 5.94733 6.76572C5.94733 6.76572 4.71845 6.342 4.13902 5.92819Z" fill="#212121"/>
</svg>
