<svg width="13" height="16" viewBox="0 0 13 16" fill="none" xmlns="http://www.w3.org/2000/svg">
<path fill-rule="evenodd" clip-rule="evenodd" d="M9.26393 12.3561C9.46161 11.6332 9.07789 10.1472 9.07789 10.1472C9.07789 10.1472 8.79958 11.3578 8.36471 11.8052C7.99371 12.1869 7.53918 12.4516 6.8873 12.5212C7.42027 12.2623 7.7868 11.7225 7.7868 11.0986C7.7868 10.2228 7.06455 9.51278 6.17361 9.51278C5.28268 9.51278 4.56039 10.2228 4.56039 11.0986C4.56039 11.3378 4.6143 11.5646 4.71077 11.768C4.15352 11.3241 4.06589 10.6123 4.06589 10.6123C4.06589 10.6123 3.44364 13.1958 5.15821 14.411C6.87274 15.6263 10.2315 14.5817 10.2315 14.5817C10.2315 14.5817 5.42493 17.9637 1.86324 14.2828C-1.20486 11.112 1.06246 6.93759 1.06246 6.93759C1.06246 6.93759 0.964542 7.32484 0.964542 7.77437C0.964542 8.22391 1.20827 8.56594 1.20827 8.56594C1.20827 8.56594 1.9353 7.03347 2.50111 6.41025C3.03661 5.82044 3.70789 5.34206 4.28771 4.92887C4.73402 4.61081 5.12614 4.33138 5.36033 4.06947C6.65024 2.62715 5.85933 0 5.85933 0C5.85933 0 7.31339 1.28188 7.71933 2.93743C7.87408 3.5685 7.77452 4.28653 7.68552 4.92863C7.54102 5.971 7.42424 6.81328 8.46814 6.75863C10.1551 6.67028 8.68918 4.06947 8.68918 4.06947C8.68918 4.06947 12.5158 6.08072 12.2299 9.59828C11.944 13.1158 8.04724 13.9155 8.04724 13.9155C8.04724 13.9155 9.06621 13.0789 9.26393 12.3561Z" fill="#212121"/>
</svg>