<svg width="151" height="127"  viewBox="0 0 151 127" fill="none" xmlns="http://www.w3.org/2000/svg">
<circle cx="13.3988" cy="117.619" r="50.8072" fill="white" fill-opacity="0.08"/>
<path fill-rule="evenodd" clip-rule="evenodd" d="M129.797 102.377C122.325 44.7514 73.06 0.240051 13.3986 0.240051C-46.2627 0.240051 -95.5278 44.7514 -103 102.377H-60.141C-53.0973 68.2152 -22.8485 42.5311 13.3992 42.5311C49.6469 42.5311 79.8957 68.2152 86.9394 102.377H129.797ZM129.797 132.861H86.9394C79.8957 167.023 49.6469 192.707 13.3992 192.707C-22.8484 192.707 -53.0972 167.023 -60.141 132.861H-103C-95.5278 190.487 -46.2626 234.998 13.3986 234.998C73.0599 234.998 122.325 190.487 129.797 132.861Z" fill="white" fill-opacity="0.08"/>
</svg>
