<svg width="11" height="16" viewBox="0 0 11 16" fill="none" xmlns="http://www.w3.org/2000/svg">
<path fill-rule="evenodd" clip-rule="evenodd" d="M10.4487 10.8286C10.4487 13.6843 8.12502 15.9993 5.25855 15.9993C2.39208 15.9993 0.0683594 13.6843 0.0683594 10.8286C0.0683594 8.05122 4.9778 0.423372 5.24705 0.00711906C5.2532 -0.00237308 5.26392 -0.002373 5.27005 0.00711916C5.5393 0.423372 10.4487 8.05122 10.4487 10.8286ZM4.39336 14.3416C1.75961 13.7653 2.2103 10.8478 2.2103 10.8478C2.2103 10.8478 2.92948 12.609 4.67477 13.1795C6.42002 13.75 8.52914 12.9133 8.52914 12.9133C8.52914 12.9133 7.02711 14.9178 4.39336 14.3416Z" fill="#212121"/>
</svg>
