<svg width="151" height="127" viewBox="0 0 151 127" fill="none" xmlns="http://www.w3.org/2000/svg">
<circle cx="116.399" cy="9.37923" r="50.8072" fill="white" fill-opacity="0.08"/>
<path fill-rule="evenodd" clip-rule="evenodd" d="M232.797 -5.86282C225.325 -63.4886 176.06 -108 116.399 -108C56.7373 -108 7.47215 -63.4886 7.37393e-06 -5.86282H42.859C49.9027 -40.0248 80.1515 -65.7089 116.399 -65.7089C152.647 -65.7089 182.896 -40.0248 189.939 -5.86282H232.797ZM232.797 24.6215H189.939C182.896 58.7834 152.647 84.4674 116.399 84.4674C80.1516 84.4674 49.9028 58.7834 42.859 24.6215H2.53864e-05C7.47223 82.2472 56.7374 126.758 116.399 126.758C176.06 126.758 225.325 82.2472 232.797 24.6215Z" fill="white" fill-opacity="0.08"/>
</svg>
